<?xml version="1.0" encoding="utf-8"?>
<!-- Generator: Adobe Illustrator 26.3.1, SVG Export Plug-In . SVG Version: 6.00 Build 0)  -->
<svg version="1.1" id="Capa_1" xmlns="http://www.w3.org/2000/svg" xmlns:xlink="http://www.w3.org/1999/xlink" x="0px" y="0px"
	 viewBox="0 0 1273 1280" style="enable-background:new 0 0 1273 1280;" xml:space="preserve">
<style type="text/css">
	.st0{fill:#FF5722;}
	.st1{enable-background:new    ;}
	.st2{clip-path:url(#SVGID_00000011031493732414891180000013339423367328850311_);}
	.st3{clip-path:url(#SVGID_00000171713441214283188320000002046635691740427951_);fill:#FFFFFF;}
	.st4{clip-path:url(#SVGID_00000089563048490320086920000014773626738066495147_);}
	.st5{clip-path:url(#SVGID_00000048476108855760539970000012745887595302082967_);fill:#FFFFFF;}
	.st6{clip-path:url(#SVGID_00000001658615996113345120000010442588360827978126_);}
	.st7{clip-path:url(#SVGID_00000172433605094952703220000015170832809107198630_);}
	.st8{clip-path:url(#SVGID_00000072257712058743873860000009706579400837634465_);fill:#FFFFFF;}
	.st9{clip-path:url(#SVGID_00000125592432648474144740000000816871020056455840_);}
	.st10{clip-path:url(#SVGID_00000116222391068339357480000010221486177435552926_);}
	.st11{clip-path:url(#SVGID_00000168117220204007076880000009527900444028223656_);fill:#FFFFFF;}
</style>
<g transform="translate(0.000000,1280.000000) scale(0.100000,-0.100000)">
	<path class="st0" d="M7205,12765c-60-18-389-115-730-215s-847-248-1125-330c-1766-519-2964-870-3380-992c-190-56-349-105-355-110
		s2-19,20-37c42-40,4977-3976,5023-4005c20-13,51-27,69-31c54-11,13-24,1193,385c272,95,610,212,750,260c140,49,424,147,630,218
		c206,72,661,229,1010,350s858,297,1130,392c272,94,618,214,769,266c150,52,286,101,302,110c35,18,37,34,7,61
		c-67,60-4993,3653-5047,3680C7390,12809,7349,12809,7205,12765z"/>
	<path class="st0" d="M1280,10788c-5-13-296-1457-646-3211C118,4994-1,4385,8,4366c5-13,775-682,1709-1487S3752,1125,4163,770
		c412-355,761-651,775-659c22-12,27-11,38,3c6,10,15,34,19,54c3,20,322,1482,707,3247c386,1766,703,3226,705,3245c3,25-2,45-19,70
		c-13,19-172,154-354,300c-1050,840-4716,3765-4729,3772C1294,10809,1287,10805,1280,10788z"/>
	<path class="st0" d="M12285,8499c-220-76-542-188-715-248s-589-205-925-321c-335-117-673-234-750-260s-414-143-750-260
		c-335-116-725-252-865-300c-977-338-1341-465-1380-485c-57-29-75-50-89-100C6779,6403,5408,107,5403,58c-4-43-3-58,7-58
		c7,0,279,99,604,221c686,257,1517,567,2776,1037c639,239,1680,627,2015,753c345,129,413,160,432,199c6,14,46,176,88,360
		s101,441,131,570c31,129,77,331,105,447c27,117,72,310,99,428c28,118,73,312,100,430c28,118,73,312,100,430c28,118,73,312,100,430
		c28,118,73,312,100,430c28,118,73,312,100,430c28,118,73,312,100,430c28,118,73,312,100,430c28,118,73,312,100,430
		c28,118,72,311,99,428c28,116,75,318,105,447c76,326,73,310,45,309C12696,8639,12505,8576,12285,8499z M9781,4938
		c289-134,275-583-31-990c-325-433-833-624-1070-402c-93,87-126,186-117,353c21,425,435,922,874,1051C9539,4980,9704,4974,9781,4938
		z"/>
</g>
<g transform="translate(0.000000,1280.000000) scale(0.100000,-0.100000)">
	<g>
		<g class="st1">
			<defs>
				<polygon id="SVGID_1_" class="st1" points="9119.8,8609.3 5633.4,11472.2 7681.7,12169.1 11168,9306.2 				"/>
			</defs>
			<clipPath id="SVGID_00000109739767697480407100000013544875346159766684_">
				<use xlink:href="#SVGID_1_"  style="overflow:visible;"/>
			</clipPath>
			<g style="clip-path:url(#SVGID_00000109739767697480407100000013544875346159766684_);">
				<g>
					<g>
						<g>
							<g>
								<defs>
									<polyline id="SVGID_00000127030425517147620620000017905915817557201316_" points="9119.8,8609.3 5633.4,11472.2 
										7681.7,12169.1 11168,9306.2 9119.8,8609.3 									"/>
								</defs>
								<clipPath id="SVGID_00000061438819137247182030000009678520097775185550_">
									<use xlink:href="#SVGID_00000127030425517147620620000017905915817557201316_"  style="overflow:visible;"/>
								</clipPath>
								<path style="clip-path:url(#SVGID_00000061438819137247182030000009678520097775185550_);fill:#FFFFFF;" d="M7224.5,12013.6
									L7224.5,12013.6l-407.9-145.6c-245.9-87.9-421.4-150.6-428.3-155.8l-0.7-0.3l-245.3-84.8c-1.1-0.4-1.4-1.3-0.8-2.3
									c2-3.2,6.8-10.7,13-20.6c31.3-50.1,51.6-99.8,60.3-147.3c10.3-56.4,20.8-107.3,18.3-160.4c-0.5-48.6-5.1-57.6-16.2-98.9
									c-10.7-39.8-43.8-98.3-73.8-129.8l-6.3-6.7c-0.7-0.7-0.3-1.9,0.9-2.9l281.7-224l286.1-227.5c1.8-1.4,4.3-2,5.8-1.5l0.7,0.4
									c10.4,8.8,51.5,43.8,79.3,67.1c33.6,28.1,85.7,91.1,97.5,114.3c6.9,13.6,32.4,48.3,31.4,61.7c-0.4,5.3,16,52,15,57.4
									l11.2-8.2L8814,9423.1l0.9-0.9l24.5-33.7c66-89.1,48.7-167.5-50-229.6c-13.8-8.6-51.7-26.2-83.6-39.4l-56.3-22.7
									c-1.4-0.6-1.3-2.1,0.4-3.4l282.1-224.2l282.4-224.5c1.6-1.3,4.2-1.9,5.7-1.4l0.1,0l958.6,342.4l958.6,342.5
									c1.6,0.5,1.5,2-0.3,3.4l-283,223.7l-283.4,223.4c-1.6,1.3-4.1,1.9-5.6,1.4l-56.7-17.2c-145.4-43.9-247.1-51.9-328.5-27
									c-43.1,13.3-102.8,41.9-166.6,79.5c-48.2,27.8-168.6,122.8-1419,1115l-1363.9,1081.7
									C7228.6,12013.5,7226.1,12014.1,7224.5,12013.6"/>
							</g>
						</g>
					</g>
				</g>
			</g>
		</g>
	</g>
</g>
<g transform="translate(0.000000,1280.000000) scale(0.100000,-0.100000)">
	<g>
		<g class="st1">
			<defs>
				<polygon id="SVGID_00000107569312255071003480000008587495620202708406_" class="st1" points="6962.4,7892.2 3475.9,10755.2 
					5524.2,11452.1 9010.6,8589.1 				"/>
			</defs>
			<clipPath id="SVGID_00000144322215989425368490000000241547645331286160_">
				<use xlink:href="#SVGID_00000107569312255071003480000008587495620202708406_"  style="overflow:visible;"/>
			</clipPath>
			<g style="clip-path:url(#SVGID_00000144322215989425368490000000241547645331286160_);">
				<g>
					<g>
						<g>
							<g>
								<defs>
									<polyline id="SVGID_00000129884441768093117250000011508674595047540660_" points="6962.4,7892.2 3475.9,10755.2 
										5524.2,11452.1 9010.6,8589.1 6962.4,7892.2 									"/>
								</defs>
								<clipPath id="SVGID_00000042703350403444051170000008900127363431537841_">
									<use xlink:href="#SVGID_00000129884441768093117250000011508674595047540660_"  style="overflow:visible;"/>
								</clipPath>
								<path style="clip-path:url(#SVGID_00000042703350403444051170000008900127363431537841_);fill:#FFFFFF;" d="M5067,11296.6
									l-407.9-145.7c-245.9-87.8-421.4-150.5-428.4-155.8l-0.6-0.4l-245.3-84.8c-1.2-0.4-1.5-1.3-0.9-2.3
									c2.1-3.2,6.9-10.8,13-20.6c31.4-50.1,51.7-99.8,60.5-147.4c10.3-56.4,20.8-107.3,18.3-160.4c-0.6-48.5-5.2-57.6-16.2-98.9
									c-10.8-39.7-43.8-98.2-73.7-129.8l-6.4-6.6c-0.7-0.8-0.3-1.9,1-3l281.7-224l286.1-227.5c1.8-1.4,4.2-1.9,5.7-1.4l0.7,0.4
									c10.4,8.8,51.6,43.8,79.4,67c33.6,28.1,85.6,91.2,97.4,114.4c6.9,13.6,32.4,48.3,31.4,61.7c-0.4,5.2,16,52,15,57.3l11.2-8.1
									l1867.5-1474.6l0.8-0.9l24.7-33.7c66-89.1,48.7-167.5-50.1-229.5c-13.9-8.6-51.7-26.2-83.5-39.5l-56.3-22.7
									c-1.4-0.6-1.3-2.1,0.3-3.3l282.1-224.3l282.4-224.5c1.6-1.3,4.2-1.9,5.8-1.4l958.6,342.4l958.5,342.4
									c1.6,0.6,1.5,2.1-0.2,3.4l-283,223.7l-283.4,223.4c-1.6,1.3-4.2,1.9-5.7,1.4l-56.7-17.2c-145.5-43.8-247.1-51.9-328.6-27
									c-43,13.3-102.8,41.9-166.6,79.5c-48,27.8-168.4,122.8-1418.9,1115.1l-1363.9,1081.7
									C5071.2,11296.4,5068.5,11297.1,5067,11296.6"/>
							</g>
						</g>
					</g>
				</g>
			</g>
		</g>
	</g>
</g>
<g transform="translate(0.000000,1280.000000) scale(0.100000,-0.100000)">
	<g>
		<g class="st1">
			<defs>
				<polygon id="SVGID_00000053542265503438231170000009182782471553981341_" class="st1" points="-393.2,7095.7 2993.9,9915.7 
					5025.5,5141.3 1638.4,2321.3 				"/>
			</defs>
			<clipPath id="SVGID_00000080904688661881148490000013452602116432014249_">
				<use xlink:href="#SVGID_00000053542265503438231170000009182782471553981341_"  style="overflow:visible;"/>
			</clipPath>
			<g style="clip-path:url(#SVGID_00000080904688661881148490000013452602116432014249_);">
				<g>
					<g>
						<g>
							<g>
								<defs>
									<polyline id="SVGID_00000085948681551949392210000001582866915528535429_" points="766.5,4370.4 2189.3,9245.8 
										3865.8,7866.6 2443,2991.2 766.5,4370.4 									"/>
								</defs>
								<clipPath id="SVGID_00000074425413330833122650000015034588103993845167_">
									<use xlink:href="#SVGID_00000085948681551949392210000001582866915528535429_"  style="overflow:visible;"/>
								</clipPath>
								<g style="clip-path:url(#SVGID_00000074425413330833122650000015034588103993845167_);">
									<defs>
										<polyline id="SVGID_00000126291084111919876330000013960344216149471166_" points="766.5,4370.4 2189.3,9245.8 
											3865.8,7866.6 2443,2991.2 766.5,4370.4 										"/>
									</defs>
									<clipPath id="SVGID_00000130641066399929834420000016463789038259265948_">
										<use xlink:href="#SVGID_00000126291084111919876330000013960344216149471166_"  style="overflow:visible;"/>
									</clipPath>
									<path style="clip-path:url(#SVGID_00000130641066399929834420000016463789038259265948_);fill:#FFFFFF;" d="M3504.6,8163.3
										c-0.2,0.4-0.4,0.7-0.6,1l-0.4,0.3l0,0l-344.4,270.1c-207.6,162.8-355.9,279-364.7,281.9l-0.7,0.4l-204.1,164.1
										c-1,0.8-2,0.6-2.8-0.6c-2.5-3.8-8.3-12.8-15.9-24.2c-38.9-58.9-82.5-107.6-129.1-144.8c-55.3-44.1-104.8-84.9-162.5-115.4
										c-52-29.7-63.8-31.3-113-47.1c-47.4-15.2-125.1-22.2-172.6-15.2l-10.1,1.4c-1,0.1-2-0.7-2.6-2.2l-0.7-2.3l-107.5-385.8
										L1763.2,7751c-0.5-1.7-0.3-3.5,0.2-4.7c0.2-0.6,0.6-1,0.9-1.3l0.7-0.5c14.3-3.7,70.6-18.4,108.4-28.4
										c45.6-12.3,136.9-19.2,167.1-15.3c17.8,2.4,66.5,1.3,80.3,10.6c5.3,3.6,62.9,18.1,68.1,22.2l-3.5-14.9l-706-2563.8
										l-0.5-1.3l-24.5-42.7c-64.4-113.5-156-146.8-267.8-98.1c-15.6,7-51.9,29.4-80.8,49.4l-50.3,35.6c-1.3,0.9-2.8,0-3.4-2.4
										l-108.3-388.1l-108.4-388.7c-0.5-1.6-0.3-3.3,0.2-4.6c0.2-0.4,0.4-0.8,0.7-1.1l1.1-0.9l808.7-634l809.5-634.6
										c1.3-1.1,2.9-0.1,3.5,2.3l107.3,388.8l106.7,388.8c0.4,1.6,0.3,3.3-0.2,4.6c-0.2,0.5-0.5,1-0.9,1.3l-44.6,39.5
										c-82.3,73.1-134.2,137.5-161,200.5c-10.4,24.4-17,48.6-20.1,73c-5.8,46.2-3,116.8,7.4,196.4
										c7.4,59.8,52.8,225,530.7,1944.6l520.6,1875.3C3505.2,8160.2,3505.1,8162,3504.6,8163.3"/>
								</g>
							</g>
						</g>
					</g>
				</g>
			</g>
		</g>
	</g>
</g>
<g transform="translate(0.000000,1280.000000) scale(0.100000,-0.100000)">
	<g>
		<g class="st1">
			<defs>
				<polygon id="SVGID_00000142154897474636024310000017340893913533155974_" class="st1" points="1411.7,5777.1 4845.9,8636.3 
					6914.3,3775.3 3480.2,916.1 				"/>
			</defs>
			<clipPath id="SVGID_00000001655010228504041440000004615566547687194806_">
				<use xlink:href="#SVGID_00000142154897474636024310000017340893913533155974_"  style="overflow:visible;"/>
			</clipPath>
			<g style="clip-path:url(#SVGID_00000001655010228504041440000004615566547687194806_);">
				<g>
					<g>
						<g>
							<g>
								<defs>
									<polyline id="SVGID_00000133526196595627528610000000035737687784188564_" points="2581.4,3028.3 4016.5,7945.8 
										5744.7,6524.1 4309.6,1606.6 2581.4,3028.3 									"/>
								</defs>
								<clipPath id="SVGID_00000105399402547327935550000014813528893080786839_">
									<use xlink:href="#SVGID_00000133526196595627528610000000035737687784188564_"  style="overflow:visible;"/>
								</clipPath>
								<g style="clip-path:url(#SVGID_00000105399402547327935550000014813528893080786839_);">
									<defs>
										<polyline id="SVGID_00000074430622099311069770000007739360557525194655_" points="2581.4,3028.3 4016.5,7945.8 
											5744.7,6524.1 4309.6,1606.6 2581.4,3028.3 										"/>
									</defs>
									<clipPath id="SVGID_00000114779676909234263170000001128040575210301588_">
										<use xlink:href="#SVGID_00000074430622099311069770000007739360557525194655_"  style="overflow:visible;"/>
									</clipPath>
									<path style="clip-path:url(#SVGID_00000114779676909234263170000001128040575210301588_);fill:#FFFFFF;" d="M5373.3,6829
										c-0.2,0.6-0.6,1.1-1,1.4l0,0l-1.2,1L5017,7109c-214.1,168-367,287.8-376,291l-0.7,0.2l-210.6,169.3c-1,0.8-2.1,0.6-2.9-0.7
										c-2.5-3.8-8.5-12.8-16.2-24.3c-39.6-58.9-84.2-107.7-131.9-144.6c-56.5-43.8-107.2-84.4-166.3-114.5
										c-53.2-29.2-65.3-30.6-115.8-46c-48.7-14.7-128.4-20.6-177.3-13l-10.3,1.6c-1.2,0.2-2.3-0.9-2.8-2.7l-109-390.8
										l-110.7-397.1c-0.4-1.6-0.3-3.5,0.2-4.8c0.2-0.5,0.5-1,0.9-1.3l0.8-0.4c14.7-3.9,72.6-19.8,111.4-30.5
										c46.9-13.2,140.7-21.4,171.7-17.9c18.2,2.1,68.3,0.4,82.5,9.5c5.4,3.5,64.5,17.4,69.8,21.6l-3.5-15L3308.6,3813l-0.6-1.4
										l-25-42.8c-65.5-114-159.4-146.4-274.6-95.5c-16,7.3-53.5,30.7-83.2,51.2l-51.9,36.9c-1.3,0.9-2.9-0.2-3.5-2.4
										l-109.2-391.4l-109.2-391.8c-0.5-1.6-0.3-3.4,0.2-4.8c0.2-0.5,0.5-0.9,0.8-1.2l0.1-0.1l0.1,0l834.9-654.7l834.9-654.6
										c1.3-1,3,0,3.6,2.4l108.2,392.1l107.5,392c0.4,1.6,0.3,3.4-0.2,4.7c-0.2,0.5-0.5,1-0.9,1.3l-46.1,40.6
										c-85.8,76-139.8,142.6-167.4,207.4c-10.3,24.2-16.9,48.1-20.1,72.2c-6.2,46.9-3.7,118.4,6.6,198.7
										c7.3,60.5,53.1,227.2,534.9,1961.3l525,1891.2C5374,6826,5373.8,6827.7,5373.3,6829"/>
								</g>
							</g>
						</g>
					</g>
				</g>
			</g>
		</g>
	</g>
</g>
</svg>
